<mxfile host="drawio-plugin" modified="2024-11-12T01:02:15.650Z" agent="Mozilla/5.0 (Windows NT 10.0; Win64; x64) AppleWebKit/537.36 (KHTML, like Gecko) Chrome/122.0.0.0 Safari/537.36" version="22.1.22" etag="BdZvW3Bk9tACwkJ31r2y" type="embed">
  <diagram id="basF6_X-8PGoClfu48Hd" name="Page-1">
    <mxGraphModel dx="1432" dy="742" grid="1" gridSize="10" guides="1" tooltips="1" connect="1" arrows="1" fold="1" page="1" pageScale="1" pageWidth="850" pageHeight="1100" math="0" shadow="0">
      <root>
        <mxCell id="0" />
        <mxCell id="1" parent="0" />
        <mxCell id="2" value="MES" style="strokeWidth=2;html=1;shape=mxgraph.flowchart.database;whiteSpace=wrap;" vertex="1" parent="1">
          <mxGeometry x="60" y="610" width="100" height="90" as="geometry" />
        </mxCell>
        <mxCell id="3" value="Quality" style="strokeWidth=2;html=1;shape=mxgraph.flowchart.database;whiteSpace=wrap;" vertex="1" parent="1">
          <mxGeometry x="60" y="490" width="100" height="90" as="geometry" />
        </mxCell>
        <mxCell id="4" value="Teamcenter" style="strokeWidth=2;html=1;shape=mxgraph.flowchart.database;whiteSpace=wrap;" vertex="1" parent="1">
          <mxGeometry x="60" y="370" width="100" height="90" as="geometry" />
        </mxCell>
        <mxCell id="5" value="SAP" style="strokeWidth=2;html=1;shape=mxgraph.flowchart.database;whiteSpace=wrap;" vertex="1" parent="1">
          <mxGeometry x="60" y="250" width="100" height="90" as="geometry" />
        </mxCell>
        <mxCell id="6" value="CDC" style="verticalLabelPosition=bottom;verticalAlign=top;html=1;strokeWidth=2;shape=mxgraph.arrows2.arrow;dy=0.6;dx=40;notch=0;" vertex="1" parent="1">
          <mxGeometry x="230" y="620" width="100" height="70" as="geometry" />
        </mxCell>
        <mxCell id="7" value="Batch (Prefect)" style="verticalLabelPosition=bottom;verticalAlign=top;html=1;strokeWidth=2;shape=mxgraph.arrows2.arrow;dy=0.6;dx=40;notch=0;" vertex="1" parent="1">
          <mxGeometry x="230" y="500" width="100" height="70" as="geometry" />
        </mxCell>
        <mxCell id="8" value="Batch (Prefect)" style="verticalLabelPosition=bottom;verticalAlign=top;html=1;strokeWidth=2;shape=mxgraph.arrows2.arrow;dy=0.6;dx=40;notch=0;" vertex="1" parent="1">
          <mxGeometry x="230" y="380" width="100" height="70" as="geometry" />
        </mxCell>
        <mxCell id="9" value="SLT" style="verticalLabelPosition=bottom;verticalAlign=top;html=1;strokeWidth=2;shape=mxgraph.arrows2.arrow;dy=0.6;dx=40;notch=0;" vertex="1" parent="1">
          <mxGeometry x="230" y="260" width="100" height="70" as="geometry" />
        </mxCell>
        <mxCell id="10" value="Data Sources" style="rounded=0;whiteSpace=wrap;html=1;fillColor=none;strokeWidth=5;align=center;verticalAlign=top;" vertex="1" parent="1">
          <mxGeometry x="25" y="220" width="170" height="510" as="geometry" />
        </mxCell>
        <mxCell id="11" value="Apache Kafka" style="rounded=1;whiteSpace=wrap;html=1;rotation=-90;" vertex="1" parent="1">
          <mxGeometry x="120" y="450" width="490" height="20" as="geometry" />
        </mxCell>
        <mxCell id="12" value="" style="verticalLabelPosition=bottom;verticalAlign=top;html=1;strokeWidth=2;shape=mxgraph.arrows2.arrow;dy=0.6;dx=40;notch=0;" vertex="1" parent="1">
          <mxGeometry x="410" y="440" width="100" height="70" as="geometry" />
        </mxCell>
        <mxCell id="14" value="" style="ellipse;shape=cloud;whiteSpace=wrap;html=1;" vertex="1" parent="1">
          <mxGeometry x="530" y="392.5" width="290" height="165" as="geometry" />
        </mxCell>
      </root>
    </mxGraphModel>
  </diagram>
</mxfile>
